<svg width="35" height="35" viewBox="0 0 35 35" fill="none" xmlns="http://www.w3.org/2000/svg">
<path fill-rule="evenodd" clip-rule="evenodd" d="M7.29102 5.83366C6.4856 5.83366 5.83268 6.48658 5.83268 7.29199V21.8753C5.83268 22.6807 6.4856 23.3337 7.29102 23.3337H27.7077C28.5131 23.3337 29.166 22.6807 29.166 21.8753V7.29199C29.166 6.48658 28.5131 5.83366 27.7077 5.83366H7.29102ZM2.91602 7.29199C2.91602 4.87575 4.87477 2.91699 7.29102 2.91699H27.7077C30.1239 2.91699 32.0827 4.87575 32.0827 7.29199V21.8753C32.0827 24.2916 30.1239 26.2503 27.7077 26.2503H18.9577V29.167H24.791C25.5964 29.167 26.2493 29.8199 26.2493 30.6253C26.2493 31.4307 25.5964 32.0837 24.791 32.0837H10.2077C9.40227 32.0837 8.74935 31.4307 8.74935 30.6253C8.74935 29.8199 9.40227 29.167 10.2077 29.167H16.041V26.2503H7.29102C4.87477 26.2503 2.91602 24.2916 2.91602 21.8753V7.29199ZM25.8222 9.17746C26.3917 9.74698 26.3917 10.6703 25.8222 11.2399L21.4472 15.6149C21.1737 15.8883 20.8028 16.042 20.416 16.042H15.1867L11.2389 19.9899C10.6694 20.5594 9.746 20.5594 9.17649 19.9899C8.60697 19.4203 8.60697 18.497 9.17649 17.9275L13.5515 13.5525C13.825 13.279 14.1959 13.1253 14.5827 13.1253H19.812L23.7598 9.17746C24.3293 8.60795 25.2527 8.60795 25.8222 9.17746Z" fill="black"/>
</svg>
