<svg width="35" height="35" viewBox="0 0 35 35" fill="none" xmlns="http://www.w3.org/2000/svg">
<path fill-rule="evenodd" clip-rule="evenodd" d="M17.4993 5.83366C11.056 5.83366 5.83268 11.057 5.83268 17.5003C5.83268 23.9436 11.056 29.167 17.4993 29.167C23.9427 29.167 29.166 23.9436 29.166 17.5003C29.166 11.057 23.9427 5.83366 17.4993 5.83366ZM2.91602 17.5003C2.91602 9.44617 9.4452 2.91699 17.4993 2.91699C25.5535 2.91699 32.0827 9.44617 32.0827 17.5003C32.0827 25.5545 25.5535 32.0837 17.4993 32.0837C9.4452 32.0837 2.91602 25.5545 2.91602 17.5003ZM23.6865 11.3131C24.0488 11.6754 24.1944 12.2011 24.0701 12.698L22.0077 20.9476C21.8771 21.4701 21.4691 21.8781 20.9466 22.0087L12.6971 24.0711C12.2001 24.1953 11.6744 24.0497 11.3122 23.6875C10.9499 23.3253 10.8043 22.7996 10.9286 22.3026L12.991 14.053C13.1216 13.5305 13.5296 13.1226 14.0521 12.9919L22.3016 10.9295C22.7986 10.8053 23.3243 10.9509 23.6865 11.3131ZM15.6083 15.6093L14.3476 20.652L19.3904 19.3913L20.651 14.3486L15.6083 15.6093Z" fill="black"/>
</svg>
