<svg width="35" height="35" viewBox="0 0 35 35" fill="none" xmlns="http://www.w3.org/2000/svg">
<path fill-rule="evenodd" clip-rule="evenodd" d="M2.91602 7.29199C2.91602 4.87575 4.87477 2.91699 7.29102 2.91699H11.666C14.0823 2.91699 16.041 4.87575 16.041 7.29199V11.667C16.041 14.0832 14.0823 16.042 11.666 16.042H7.29102C4.87477 16.042 2.91602 14.0832 2.91602 11.667V7.29199ZM7.29102 5.83366C6.4856 5.83366 5.83268 6.48658 5.83268 7.29199V11.667C5.83268 12.4724 6.4856 13.1253 7.29102 13.1253H11.666C12.4714 13.1253 13.1243 12.4724 13.1243 11.667V7.29199C13.1243 6.48658 12.4714 5.83366 11.666 5.83366H7.29102ZM18.9577 7.29199C18.9577 4.87575 20.9164 2.91699 23.3327 2.91699H27.7077C30.1239 2.91699 32.0827 4.87575 32.0827 7.29199V11.667C32.0827 14.0832 30.1239 16.042 27.7077 16.042H23.3327C20.9164 16.042 18.9577 14.0832 18.9577 11.667V7.29199ZM23.3327 5.83366C22.5273 5.83366 21.8743 6.48658 21.8743 7.29199V11.667C21.8743 12.4724 22.5273 13.1253 23.3327 13.1253H27.7077C28.5131 13.1253 29.166 12.4724 29.166 11.667V7.29199C29.166 6.48658 28.5131 5.83366 27.7077 5.83366H23.3327ZM2.91602 23.3337C2.91602 20.9174 4.87477 18.9587 7.29102 18.9587H11.666C14.0823 18.9587 16.041 20.9174 16.041 23.3337V27.7087C16.041 30.1249 14.0823 32.0837 11.666 32.0837H7.29102C4.87477 32.0837 2.91602 30.1249 2.91602 27.7087V23.3337ZM7.29102 21.8753C6.4856 21.8753 5.83268 22.5282 5.83268 23.3337V27.7087C5.83268 28.5141 6.4856 29.167 7.29102 29.167H11.666C12.4714 29.167 13.1243 28.5141 13.1243 27.7087V23.3337C13.1243 22.5282 12.4714 21.8753 11.666 21.8753H7.29102ZM25.5202 19.6878C26.3256 19.6878 26.9785 20.3407 26.9785 21.1462V24.0628H29.8952C30.7006 24.0628 31.3535 24.7157 31.3535 25.5212C31.3535 26.3266 30.7006 26.9795 29.8952 26.9795H26.9785V29.8962C26.9785 30.7016 26.3256 31.3545 25.5202 31.3545C24.7148 31.3545 24.0618 30.7016 24.0618 29.8962V26.9795H21.1452C20.3398 26.9795 19.6868 26.3266 19.6868 25.5212C19.6868 24.7157 20.3398 24.0628 21.1452 24.0628H24.0618V21.1462C24.0618 20.3407 24.7148 19.6878 25.5202 19.6878Z" fill="black"/>
</svg>
