<svg width="35" height="35" viewBox="0 0 35 35" fill="none" xmlns="http://www.w3.org/2000/svg">
<path fill-rule="evenodd" clip-rule="evenodd" d="M6.19727 11.6667C6.19727 7.63958 9.46186 4.375 13.4889 4.375H24.791C28.8181 4.375 32.0827 7.63959 32.0827 11.6667V23.3333C32.0827 27.3604 28.8181 30.625 24.791 30.625H4.37435C3.83842 30.625 3.34567 30.331 3.09108 29.8594C2.83648 29.3878 2.86107 28.8146 3.15511 28.3665L5.47998 24.8239C5.94795 24.1108 6.19727 23.2765 6.19727 22.4235V11.6667ZM13.4889 7.29167C11.0727 7.29167 9.11393 9.25042 9.11393 11.6667V22.4235C9.11393 23.8451 8.6984 25.2356 7.91845 26.4241L7.0757 27.7083H24.791C27.2073 27.7083 29.166 25.7496 29.166 23.3333V11.6667C29.166 9.25042 27.2073 7.29167 24.791 7.29167H13.4889Z" fill="black"/>
<path d="M20.416 17.5003C20.416 18.3057 19.7631 18.9587 18.9577 18.9587C18.1523 18.9587 17.4993 18.3057 17.4993 17.5003C17.4993 16.6949 18.1523 16.042 18.9577 16.042C19.7631 16.042 20.416 16.6949 20.416 17.5003Z" fill="black"/>
<path d="M26.2493 17.5003C26.2493 18.3057 25.5964 18.9587 24.791 18.9587C23.9856 18.9587 23.3327 18.3057 23.3327 17.5003C23.3327 16.6949 23.9856 16.042 24.791 16.042C25.5964 16.042 26.2493 16.6949 26.2493 17.5003Z" fill="black"/>
<path d="M14.5827 17.5003C14.5827 18.3057 13.9298 18.9587 13.1243 18.9587C12.3189 18.9587 11.666 18.3057 11.666 17.5003C11.666 16.6949 12.3189 16.042 13.1243 16.042C13.9298 16.042 14.5827 16.6949 14.5827 17.5003Z" fill="black"/>
</svg>
