<svg width="27" height="29" viewBox="0 0 27 29" fill="none" xmlns="http://www.w3.org/2000/svg">
<path fill-rule="evenodd" clip-rule="evenodd" d="M3.24078 12.4737H23.7574C23.253 8.67006 20.6809 5.51836 17.2081 4.18461C17.1578 4.26069 17.0992 4.33287 17.0322 4.39986L15.7296 5.7025C15.1926 6.23947 14.322 6.23947 13.7851 5.7025C13.2481 5.16553 13.2481 4.29492 13.7851 3.75795L14.0296 3.51337C13.8539 3.50449 13.677 3.5 13.4991 3.5C8.25017 3.5 3.91241 7.40888 3.24078 12.4737ZM0.48001 12.3973C1.2031 5.84545 6.75509 0.75 13.4991 0.75C20.2431 0.75 25.7951 5.84545 26.5181 12.3973C26.6981 14.0278 25.3533 15.2237 23.9201 15.2237H3.07802C1.6449 15.2237 0.300058 14.0278 0.48001 12.3973ZM21.296 8.28224C21.4925 9.01576 21.0572 9.76972 20.3237 9.96627L19.0655 10.3034C18.332 10.5 17.578 10.0647 17.3815 9.33114C17.1849 8.59763 17.6202 7.84366 18.3537 7.64712L19.612 7.30997C20.3455 7.11343 21.0995 7.54873 21.296 8.28224ZM6.01365 7.66589C6.55062 7.12892 7.42122 7.12891 7.95819 7.66589L8.87929 8.58699C9.41626 9.12396 9.41626 9.99456 8.87929 10.5315C8.34232 11.0685 7.47172 11.0685 6.93475 10.5315L6.01365 9.61043C5.47667 9.07346 5.47667 8.20286 6.01365 7.66589ZM12.1709 9.58491C12.3675 8.8514 13.1214 8.4161 13.8549 8.61264L15.1132 8.94979C15.8467 9.14633 16.282 9.9003 16.0855 10.6338C15.8889 11.3673 15.135 11.8026 14.4014 11.6061L13.1432 11.2689C12.4097 11.0724 11.9744 10.3184 12.1709 9.58491ZM3.15039 20.3618V25.5H23.8478V20.3618H21.0527L17.1506 22.7631C16.7087 23.0351 16.1513 23.0351 15.7094 22.7631L11.8073 20.3618H3.15039ZM0.400391 20.2895C0.400391 18.8107 1.59921 17.6118 3.07802 17.6118H11.8277C12.3233 17.6118 12.8091 17.7493 13.2311 18.009L16.43 19.9776L19.6289 18.009C20.0509 17.7493 20.5367 17.6118 21.0322 17.6118H23.9201C25.3989 17.6118 26.5978 18.8107 26.5978 20.2895V25.5724C26.5978 27.0512 25.3989 28.25 23.9201 28.25H3.07802C1.59921 28.25 0.400391 27.0512 0.400391 25.5724V20.2895Z" fill="black"/>
</svg>
