<svg width="33" height="33" viewBox="0 0 33 33" fill="none" xmlns="http://www.w3.org/2000/svg">
<path fill-rule="evenodd" clip-rule="evenodd" d="M16.5419 3.41886C16.8437 3.92304 16.7918 4.5633 16.4127 5.01224C14.7748 6.95168 13.7888 9.45542 13.7888 12.193C13.7888 18.3436 18.7748 23.3296 24.9253 23.3296C25.7246 23.3296 26.5028 23.2456 27.252 23.0865C27.8267 22.9644 28.4156 23.221 28.7174 23.7252C29.0192 24.2294 28.9673 24.8697 28.5881 25.3186C26.043 28.3324 22.232 30.2501 17.9745 30.2501C10.3051 30.2501 4.08789 24.0329 4.08789 16.3635C4.08789 9.68687 8.79845 4.11359 15.0765 2.78009C15.6513 2.658 16.2401 2.91467 16.5419 3.41886ZM12.0778 6.91401C8.93089 8.88217 6.83789 12.3793 6.83789 16.3635C6.83789 22.5141 11.8239 27.5001 17.9745 27.5001C20.0023 27.5001 21.9033 26.9587 23.5412 26.0114C16.5217 25.3168 11.0388 19.3952 11.0388 12.193C11.0388 10.3248 11.4082 8.54182 12.0778 6.91401Z" fill="black"/>
</svg>
