<svg width="14" height="14" viewBox="0 0 14 14" fill="none" xmlns="http://www.w3.org/2000/svg">
<path fill-rule="evenodd" clip-rule="evenodd" d="M1.16602 2.85769C1.16602 1.92395 1.92297 1.16699 2.85672 1.16699H11.142C12.0757 1.16699 12.8327 1.92395 12.8327 2.85769C12.8327 3.46441 12.5076 4.02462 11.9808 4.32563L9.04327 6.00423C8.86152 6.10808 8.74935 6.30137 8.74935 6.5107V11.3065C8.74935 11.7484 8.49968 12.1523 8.10443 12.35L6.93776 12.9333C6.16205 13.3212 5.24935 12.7571 5.24935 11.8898V6.5107C5.24935 6.30137 5.13718 6.10809 4.95543 6.00423L2.01789 4.32563C1.49111 4.02462 1.16602 3.46441 1.16602 2.85769ZM2.85672 2.33366C2.5673 2.33366 2.33268 2.56828 2.33268 2.85769C2.33268 3.04575 2.43345 3.21938 2.59672 3.31268L5.53426 4.99128C6.07951 5.30285 6.41602 5.8827 6.41602 6.5107V11.8898L7.58268 11.3065V6.5107C7.58268 5.8827 7.91918 5.30285 8.46444 4.99128L11.402 3.31268C11.5653 3.21938 11.666 3.04575 11.666 2.85769C11.666 2.56828 11.4314 2.33366 11.142 2.33366H2.85672Z" fill="black"/>
</svg>
