<svg width="27" height="27" viewBox="0 0 27 27" fill="none" xmlns="http://www.w3.org/2000/svg">
<path fill-rule="evenodd" clip-rule="evenodd" d="M11.1126 4.74989C14.188 1.67451 19.1741 1.67452 22.2495 4.74989C25.3249 7.82527 25.3249 12.8114 22.2495 15.8868L14.2946 23.8418C12.0979 26.0385 8.53631 26.0385 6.33961 23.8418C6.03391 23.5361 5.76996 23.2029 5.54844 22.8496L6.50157 22.2519L5.54844 22.8496C4.18644 20.6774 4.44873 17.7777 6.33961 15.8868L14.2946 7.93187C15.6126 6.61385 17.7495 6.61385 19.0675 7.93187C20.3856 9.24989 20.3856 11.3868 19.0675 12.7048L11.1126 20.6598C10.6732 21.0991 9.96093 21.0991 9.52159 20.6598C9.08225 20.2205 9.08225 19.5081 9.52159 19.0688L17.4765 11.1139C17.9159 10.6745 17.9159 9.9622 17.4765 9.52286C17.0372 9.08353 16.3249 9.08353 15.8856 9.52286L7.9306 17.4778C6.79769 18.6107 6.63763 20.3512 7.45471 21.6543C7.58697 21.8652 7.74537 22.0656 7.9306 22.2508C9.24862 23.5688 11.3856 23.5688 12.7036 22.2508L20.6585 14.2958C22.8552 12.0991 22.8552 8.53758 20.6585 6.34088C18.4618 4.14418 14.9003 4.14418 12.7036 6.34088L4.74862 14.2958C4.30928 14.7352 3.59697 14.7352 3.15763 14.2958C2.71829 13.8565 2.71829 13.1442 3.15763 12.7048L11.1126 4.74989Z" fill="black"/>
</svg>
