<svg width="33" height="33" viewBox="0 0 33 33" fill="none" xmlns="http://www.w3.org/2000/svg">
<path fill-rule="evenodd" clip-rule="evenodd" d="M6.87461 6.875C6.11547 6.875 5.5 7.49036 5.5 8.25V20.625C5.5 21.3846 6.11547 22 6.87461 22H12.375C13.3699 22 14.3081 22.1563 15.125 22.5282V9.625C15.125 8.46195 14.8352 7.84221 14.4965 7.50352C14.1578 7.16483 13.5381 6.875 12.375 6.875H6.87461ZM16.5 5.61911C16.4806 5.59892 16.4609 5.57887 16.441 5.55898C15.4047 4.52267 13.9619 4.125 12.375 4.125H6.87461C4.59619 4.125 2.75 5.97208 2.75 8.25V24.75C2.75 27.0282 4.59683 28.875 6.875 28.875H26.125C28.4032 28.875 30.25 27.0282 30.25 24.75V8.25C30.25 5.97208 28.4038 4.125 26.1254 4.125H20.625C19.0381 4.125 17.5953 4.52267 16.559 5.55898C16.5391 5.57887 16.5194 5.59892 16.5 5.61911ZM17.875 9.625V22.5282C18.6919 22.1563 19.6301 22 20.625 22H26.1254C26.8845 22 27.5 21.3846 27.5 20.625V8.25C27.5 7.49036 26.8845 6.875 26.1254 6.875H20.625C19.4619 6.875 18.8422 7.16483 18.5035 7.50352C18.1648 7.84221 17.875 8.46195 17.875 9.625ZM27.5 24.5154C27.0701 24.6673 26.6074 24.75 26.1254 24.75H20.625C19.4619 24.75 18.8422 25.0398 18.5035 25.3785C18.335 25.547 18.1786 25.7851 18.064 26.125H26.125C26.8844 26.125 27.5 25.5094 27.5 24.75V24.5154ZM14.936 26.125C14.8214 25.7851 14.665 25.547 14.4965 25.3785C14.1578 25.0398 13.5381 24.75 12.375 24.75H6.87461C6.3926 24.75 5.92993 24.6673 5.5 24.5154V24.75C5.5 25.5094 6.11561 26.125 6.875 26.125H14.936Z" fill="black"/>
</svg>
