<svg width="21" height="21" viewBox="0 0 21 21" fill="none" xmlns="http://www.w3.org/2000/svg">
<path fill-rule="evenodd" clip-rule="evenodd" d="M7.79355 3.9841C7.31422 3.50477 6.59077 3.36679 5.96867 3.63606C3.76321 4.59066 2.87134 6.85115 3.98965 8.63122C4.84723 9.99628 6.05286 11.5991 7.72667 13.2729C9.40049 14.9467 11.0033 16.1524 12.3684 17.01C14.1485 18.1283 16.4089 17.2364 17.3635 15.0309C17.6328 14.4088 17.4948 13.6854 17.0155 13.2061L16.714 12.9045C16.0156 12.2062 14.947 12.0369 14.0669 12.4852L12.9469 13.0557C11.9456 13.5659 10.7296 13.3732 9.93499 12.5786L8.42102 11.0646C7.62637 10.27 7.43373 9.05401 7.94386 8.05266L8.51442 6.93266C8.96274 6.05263 8.79345 4.984 8.09508 4.28563L8.7138 3.66691L8.09508 4.28563L7.79355 3.9841ZM9.03098 2.74666L8.42813 3.34951L9.03098 2.74666L9.33251 3.04819C10.5669 4.28262 10.8662 6.1715 10.0737 7.72703L9.50318 8.84703C9.33717 9.17289 9.39986 9.56858 9.65846 9.82718L11.1724 11.3411C11.431 11.5997 11.8267 11.6624 12.1526 11.4964L13.2726 10.9259C14.8281 10.1334 16.717 10.4327 17.9514 11.6671L18.2529 11.9686C19.2399 12.9556 19.524 14.4452 18.9696 15.7261C17.7128 18.6295 14.3712 20.3349 11.4374 18.4918C9.9687 17.5691 8.26165 16.2828 6.48924 14.5104C4.71683 12.738 3.43054 11.0309 2.50782 9.56216C0.664693 6.62837 2.3701 3.28676 5.27353 2.03005C6.55444 1.47562 8.04404 1.75972 9.03098 2.74666Z" fill="#00B600"/>
</svg>
