<svg width="33" height="33" viewBox="0 0 33 33" fill="none" xmlns="http://www.w3.org/2000/svg">
<path fill-rule="evenodd" clip-rule="evenodd" d="M27.5 8.25L5.5 8.25C4.74061 8.25 4.125 8.86561 4.125 9.625L4.125 13.0625H28.875L28.875 9.625C28.875 8.86561 28.2594 8.25 27.5 8.25ZM28.875 15.8125H4.125V23.375C4.125 24.1344 4.74061 24.75 5.5 24.75L27.5 24.75C28.2594 24.75 28.875 24.1344 28.875 23.375V15.8125ZM5.5 5.5L27.5 5.5C29.7782 5.5 31.625 7.34683 31.625 9.625L31.625 23.375C31.625 25.6532 29.7782 27.5 27.5 27.5L5.5 27.5C3.22183 27.5 1.375 25.6532 1.375 23.375L1.375 9.625C1.375 7.34683 3.22183 5.5 5.5 5.5Z" fill="black"/>
</svg>
