<svg width="33" height="33" viewBox="0 0 33 33" fill="none" xmlns="http://www.w3.org/2000/svg">
<path fill-rule="evenodd" clip-rule="evenodd" d="M9.625 6.875C9.625 4.59683 11.4718 2.75 13.75 2.75H19.25C21.5282 2.75 23.375 4.59683 23.375 6.875V9.625H26.125C28.4032 9.625 30.25 11.4718 30.25 13.75V19.25C30.25 21.5282 28.4032 23.375 26.125 23.375H23.375V26.125C23.375 28.4032 21.5282 30.25 19.25 30.25H13.75C11.4718 30.25 9.625 28.4032 9.625 26.125V23.375H6.875C4.59683 23.375 2.75 21.5282 2.75 19.25L2.75 13.75C2.75 11.4718 4.59683 9.625 6.875 9.625H9.625V6.875ZM13.75 5.5C12.9906 5.5 12.375 6.11561 12.375 6.875V11C12.375 11.7594 11.7594 12.375 11 12.375H6.875C6.11561 12.375 5.5 12.9906 5.5 13.75L5.5 19.25C5.5 20.0094 6.11561 20.625 6.875 20.625H11C11.7594 20.625 12.375 21.2406 12.375 22V26.125C12.375 26.8844 12.9906 27.5 13.75 27.5H19.25C20.0094 27.5 20.625 26.8844 20.625 26.125V22C20.625 21.2406 21.2406 20.625 22 20.625H26.125C26.8844 20.625 27.5 20.0094 27.5 19.25V13.75C27.5 12.9906 26.8844 12.375 26.125 12.375H22C21.2406 12.375 20.625 11.7594 20.625 11V6.875C20.625 6.11561 20.0094 5.5 19.25 5.5H13.75Z" fill="black"/>
</svg>
