<svg width="33" height="33" viewBox="0 0 33 33" fill="none" xmlns="http://www.w3.org/2000/svg">
<path d="M15.125 12.3749C15.125 13.8937 13.8938 15.1249 12.375 15.1249C10.8562 15.1249 9.625 13.8937 9.625 12.3749C9.625 10.8561 10.8562 9.62493 12.375 9.62493C13.8938 9.62493 15.125 10.8561 15.125 12.3749Z" fill="black"/>
<path d="M23.375 12.3749C23.375 13.8937 22.1438 15.1249 20.625 15.1249C19.1062 15.1249 17.875 13.8937 17.875 12.3749C17.875 10.8561 19.1062 9.62493 20.625 9.62493C22.1438 9.62493 23.375 10.8561 23.375 12.3749Z" fill="black"/>
<path fill-rule="evenodd" clip-rule="evenodd" d="M4.37498 6.7023C4.58498 4.00936 7.24936 2.43328 9.67493 3.08364C11.8194 3.65864 14.498 4.23642 16.5 4.23642C18.502 4.23642 21.1806 3.65864 23.3251 3.08364C25.7506 2.43328 28.415 4.00936 28.625 6.7023C28.7618 8.45614 28.8875 10.6919 28.874 12.8891C28.8607 15.0602 28.7121 17.2991 28.2563 19.0094C27.2911 22.6316 24.6703 25.6227 22.328 27.7077C18.979 30.6888 14.021 30.6888 10.672 27.7077C8.32965 25.6227 5.70892 22.6316 4.7437 19.0094C4.28794 17.2991 4.13931 15.0602 4.12599 12.8891C4.11251 10.6919 4.23822 8.45614 4.37498 6.7023ZM8.96273 5.73982C8.01309 5.48519 7.17834 6.12517 7.11666 6.91609C6.98317 8.62796 6.86311 10.7804 6.87594 12.8723C6.88894 14.9904 7.03869 16.9418 7.40097 18.3013C8.15965 21.1484 10.3028 23.6973 12.5004 25.6536C14.8071 27.7069 18.1929 27.7069 20.4996 25.6536C22.6972 23.6973 24.8403 21.1484 25.599 18.3013C25.9613 16.9418 26.1111 14.9904 26.1241 12.8723C26.1369 10.7804 26.0168 8.62796 25.8833 6.91609C25.8217 6.12517 24.9869 5.48519 24.0373 5.73982C21.8679 6.32149 18.8899 6.98642 16.5 6.98642C14.1101 6.98641 11.1321 6.32149 8.96273 5.73982ZM12.6936 20.4323C13.6179 19.3229 14.955 18.5624 16.5 18.5624C18.045 18.5624 19.3821 19.3229 20.3064 20.4323C20.7925 21.0157 20.7136 21.8828 20.1301 22.3688C19.5467 22.8549 18.6797 22.776 18.1936 22.1926C17.7007 21.6009 17.0964 21.3124 16.5 21.3124C15.9036 21.3124 15.2993 21.6009 14.8064 22.1926C14.3203 22.776 13.4533 22.8549 12.8699 22.3688C12.2864 21.8828 12.2075 21.0157 12.6936 20.4323Z" fill="black"/>
</svg>
