<svg width="21" height="29" viewBox="0 0 21 29" fill="none" xmlns="http://www.w3.org/2000/svg">
<path fill-rule="evenodd" clip-rule="evenodd" d="M10.6845 0.762449C11.1636 0.827334 11.5734 1.13903 11.7638 1.58337C13.5687 5.79467 15.3596 8.3573 16.8351 10.4686C16.9947 10.6969 17.1506 10.9199 17.3024 11.1392C18.8788 13.4162 20.125 15.4316 20.125 18.625C20.125 23.9407 15.8157 28.25 10.5 28.25C5.18426 28.25 0.875 23.9407 0.875 18.625C0.875 18.2536 0.888727 17.8845 0.914971 17.5183C0.951838 17.0039 1.27341 16.5534 1.7479 16.3515C2.22238 16.1495 2.76999 16.23 3.16628 16.5599C4.84702 17.9594 6.20039 18.0789 6.90264 17.6908C6.90446 17.6898 6.90624 17.6888 6.908 17.6879C6.89347 17.5768 6.85441 17.4068 6.7704 17.142C6.70121 16.924 6.62017 16.6965 6.5235 16.4251C6.48306 16.3116 6.43989 16.1904 6.3937 16.059C5.77725 14.3051 4.98156 11.7045 5.71422 8.04274C6.02169 6.50609 7.01486 4.76763 7.81512 3.52929C8.23249 2.88344 8.63203 2.32195 8.92713 1.92189C9.07502 1.7214 9.19754 1.56029 9.28405 1.4481C9.32732 1.39198 9.36165 1.34802 9.3857 1.31741L9.41392 1.28162L9.42196 1.2715L9.42554 1.26701C9.42567 1.26685 9.42579 1.2667 10.5 2.12501L9.42554 1.26701C9.72731 0.889329 10.2055 0.697565 10.6845 0.762449ZM10.2356 4.85182C10.1989 4.90776 10.1619 4.96447 10.1248 5.02188C9.33213 6.2485 8.60656 7.6038 8.41078 8.58228C7.8193 11.5384 8.43936 13.5859 8.98811 15.1471C9.02367 15.2483 9.06055 15.3518 9.09769 15.4561C9.20126 15.7468 9.30687 16.0433 9.39161 16.3103C9.5076 16.6759 9.62146 17.0951 9.65478 17.5223C9.68953 17.9676 9.64193 18.4845 9.37275 18.9891C9.10396 19.493 8.68825 19.8461 8.23271 20.0978C6.82743 20.8743 5.25735 20.7553 3.79412 20.1473C4.48681 23.2117 7.22618 25.5 10.5 25.5C14.297 25.5 17.375 22.422 17.375 18.625C17.375 16.3185 16.5587 14.8963 15.0414 12.7045C14.8925 12.4896 14.7381 12.2687 14.5785 12.0405C13.3477 10.2803 11.8141 8.08698 10.2356 4.85182ZM6.98891 17.6346C6.98893 17.6346 6.98846 17.6351 6.98742 17.636L6.98891 17.6346Z" fill="black"/>
</svg>
