<svg width="33" height="33" viewBox="0 0 33 33" fill="none" xmlns="http://www.w3.org/2000/svg">
<path fill-rule="evenodd" clip-rule="evenodd" d="M15.5277 3.15273C16.0647 2.61576 16.9353 2.61576 17.4723 3.15273L20.625 6.30546V5.5C20.625 4.74061 21.2406 4.125 22 4.125H26.125C26.8844 4.125 27.5 4.74061 27.5 5.5V13.1805L29.8473 15.5277C30.3842 16.0647 30.3842 16.9353 29.8473 17.4723C29.3103 18.0092 28.4397 18.0092 27.9027 17.4723L27.5 17.0695V27.5H28.875C29.6344 27.5 30.25 28.1156 30.25 28.875C30.25 29.6344 29.6344 30.25 28.875 30.25H4.125C3.36561 30.25 2.75 29.6344 2.75 28.875C2.75 28.1156 3.36561 27.5 4.125 27.5H5.5V17.0695L5.09727 17.4723C4.5603 18.0092 3.6897 18.0092 3.15273 17.4723C2.61576 16.9353 2.61576 16.0647 3.15273 15.5277L5.90224 12.7782L5.90322 12.7772L15.5277 3.15273ZM8.25 14.3195V27.5H24.75V14.3195L21.0279 10.5975L16.5 6.06954L8.25 14.3195ZM23.375 9.05546L24.75 10.4305V6.875H23.375V9.05546Z" fill="black"/>
</svg>
