<svg width="24" height="24" viewBox="0 0 24 24" fill="none" xmlns="http://www.w3.org/2000/svg">
<path fill-rule="evenodd" clip-rule="evenodd" d="M17.3571 9.92857C17.3571 5.82588 14.0313 2.5 9.92857 2.5C5.82588 2.5 2.5 5.82588 2.5 9.92857C2.5 14.0313 5.82588 17.3571 9.92857 17.3571C11.6189 17.3571 13.1785 16.7917 14.4267 15.8409L19.7929 21.2071C20.1834 21.5976 20.8166 21.5976 21.2071 21.2071C21.5976 20.8166 21.5976 20.1834 21.2071 19.7929L15.8409 14.4267C16.7917 13.1785 17.3571 11.6189 17.3571 9.92857ZM9.92857 4.5C12.9267 4.5 15.3571 6.93045 15.3571 9.92857C15.3571 11.4279 14.7506 12.7837 13.7672 13.7672C12.7837 14.7506 11.4279 15.3571 9.92857 15.3571C6.93045 15.3571 4.5 12.9267 4.5 9.92857C4.5 6.93045 6.93045 4.5 9.92857 4.5Z" fill="black"/>
</svg>
