<svg width="19" height="17" viewBox="0 0 19 17" fill="none" xmlns="http://www.w3.org/2000/svg">
<path fill-rule="evenodd" clip-rule="evenodd" d="M2.71875 5C2.71875 2.58375 4.67751 0.625 7.09375 0.625H13.875C16.2912 0.625 18.25 2.58375 18.25 5V12C18.25 14.4162 16.2912 16.375 13.875 16.375H1.625C1.30344 16.375 1.00779 16.1986 0.855037 15.9157C0.702281 15.6327 0.717034 15.2888 0.893459 15.0199L2.28838 12.8943C2.56916 12.4665 2.71875 11.9659 2.71875 11.4541V5ZM7.09375 2.375C5.644 2.375 4.46875 3.55025 4.46875 5V11.4541C4.46875 12.3071 4.21943 13.1414 3.75146 13.8545L3.24581 14.625H13.875C15.3247 14.625 16.5 13.4497 16.5 12V5C16.5 3.55025 15.3247 2.375 13.875 2.375H7.09375Z" fill="#5A5A5A"/>
</svg>
