<svg width="30" height="30" viewBox="0 0 30 30" fill="none" xmlns="http://www.w3.org/2000/svg">
<path fill-rule="evenodd" clip-rule="evenodd" d="M10 7.5C10 4.73858 12.2386 2.5 15 2.5C17.7614 2.5 20 4.73858 20 7.5V13.75C20 16.5114 17.7614 18.75 15 18.75C12.2386 18.75 10 16.5114 10 13.75V7.5ZM15 5C13.6193 5 12.5 6.11929 12.5 7.5V13.75C12.5 15.1307 13.6193 16.25 15 16.25C16.3807 16.25 17.5 15.1307 17.5 13.75V7.5C17.5 6.11929 16.3807 5 15 5ZM7.5 11.25C8.19036 11.25 8.75 11.8096 8.75 12.5V13.75C8.75 17.2018 11.5482 20 15 20C18.4518 20 21.25 17.2018 21.25 13.75V12.5C21.25 11.8096 21.8096 11.25 22.5 11.25C23.1904 11.25 23.75 11.8096 23.75 12.5V13.75C23.75 18.1581 20.4904 21.8049 16.25 22.4114V25H20C20.6904 25 21.25 25.5596 21.25 26.25C21.25 26.9404 20.6904 27.5 20 27.5H10C9.30964 27.5 8.75 26.9404 8.75 26.25C8.75 25.5596 9.30964 25 10 25H13.75V22.4114C9.50963 21.8049 6.25 18.1581 6.25 13.75V12.5C6.25 11.8096 6.80964 11.25 7.5 11.25Z" fill="black"/>
</svg>
