<svg width="21" height="29" viewBox="0 0 21 29" fill="none" xmlns="http://www.w3.org/2000/svg">
<path fill-rule="evenodd" clip-rule="evenodd" d="M10.5 3.5C6.70304 3.5 3.625 6.57804 3.625 10.375C3.625 14.3087 5.50915 18.1554 7.51282 21.1085C8.50276 22.5675 9.49446 23.7684 10.2379 24.6033C10.3292 24.706 10.4168 24.803 10.5 24.8941C10.5832 24.803 10.6708 24.706 10.7621 24.6033C11.5055 23.7684 12.4972 22.5675 13.4872 21.1085C15.4908 18.1554 17.375 14.3087 17.375 10.375C17.375 6.57804 14.297 3.5 10.5 3.5ZM10.5 26.875C9.55417 27.873 9.55387 27.8727 9.55353 27.8724L9.55049 27.8695L9.54383 27.8632L9.52169 27.8419C9.50309 27.8239 9.47687 27.7985 9.44355 27.7657C9.37692 27.7003 9.28181 27.6055 9.1623 27.4833C8.92338 27.2389 8.58638 26.8839 8.18402 26.4321C7.38054 25.5297 6.30975 24.2333 5.23718 22.6525C3.11585 19.526 0.875 15.1226 0.875 10.375C0.875 5.05926 5.18426 0.75 10.5 0.75C15.8157 0.75 20.125 5.05926 20.125 10.375C20.125 15.1226 17.8842 19.526 15.7628 22.6525C14.6903 24.2333 13.6195 25.5297 12.816 26.4321C12.4136 26.8839 12.0766 27.2389 11.8377 27.4833C11.7182 27.6055 11.6231 27.7003 11.5564 27.7657C11.5231 27.7985 11.4969 27.8239 11.4783 27.8419L11.4562 27.8632L11.4495 27.8695L11.4473 27.8716C11.447 27.8719 11.4458 27.873 10.5 26.875ZM10.5 26.875L11.4458 27.873C10.9155 28.3757 10.0839 28.3751 9.55353 27.8724L10.5 26.875ZM10.5 9C9.74061 9 9.125 9.61561 9.125 10.375C9.125 11.1344 9.74061 11.75 10.5 11.75C11.2594 11.75 11.875 11.1344 11.875 10.375C11.875 9.61561 11.2594 9 10.5 9ZM6.375 10.375C6.375 8.09683 8.22183 6.25 10.5 6.25C12.7782 6.25 14.625 8.09683 14.625 10.375C14.625 12.6532 12.7782 14.5 10.5 14.5C8.22183 14.5 6.375 12.6532 6.375 10.375Z" fill="black"/>
</svg>
