<svg width="14" height="14" viewBox="0 0 14 14" fill="none" xmlns="http://www.w3.org/2000/svg">
<path fill-rule="evenodd" clip-rule="evenodd" d="M6.99932 2.33366C5.71065 2.33366 4.66598 3.37833 4.66598 4.66699C4.66598 5.95566 5.71065 7.00033 6.99932 7.00033C8.28798 7.00033 9.33265 5.95566 9.33265 4.66699C9.33265 3.37833 8.28798 2.33366 6.99932 2.33366ZM9.12323 7.44913C9.95973 6.80957 10.4993 5.80129 10.4993 4.66699C10.4993 2.734 8.93231 1.16699 6.99932 1.16699C5.06632 1.16699 3.49932 2.734 3.49932 4.66699C3.49932 5.80129 4.03891 6.80957 4.87541 7.44913C4.28888 7.70859 3.74928 8.07574 3.28701 8.53802C2.93005 8.89497 2.62977 9.29809 2.39202 9.73331C1.95328 10.5364 2.13221 11.3553 2.6263 11.9344C3.10195 12.4918 3.86391 12.8337 4.66598 12.8337H9.33265C10.1347 12.8337 10.8967 12.4918 11.3723 11.9344C11.8664 11.3553 12.0454 10.5364 11.6066 9.73331C11.3689 9.29809 11.0686 8.89497 10.7116 8.53802C10.2494 8.07575 9.70975 7.70859 9.12323 7.44913ZM6.99932 8.16699C5.91635 8.16699 4.87774 8.5972 4.11196 9.36297C3.8343 9.64064 3.60078 9.95414 3.41587 10.2926C3.23681 10.6204 3.29458 10.9202 3.51379 11.1771C3.75144 11.4556 4.17939 11.667 4.66598 11.667H9.33265C9.81925 11.667 10.2472 11.4556 10.4848 11.1771C10.7041 10.9202 10.7618 10.6204 10.5828 10.2926C10.3979 9.95414 10.1643 9.64064 9.88667 9.36297C9.1209 8.5972 8.08228 8.16699 6.99932 8.16699Z" fill="black"/>
</svg>
